<svg width="69" height="59" viewBox="0 0 69 59" fill="none" xmlns="http://www.w3.org/2000/svg">
<path fill-rule="evenodd" clip-rule="evenodd" d="M61.9265 56.9828H67.8434C68.4002 56.9828 68.852 57.4346 68.852 57.9914C68.852 58.5482 68.4002 59 67.8434 59H1.00857C0.451757 59 0 58.5482 0 57.9914C0 57.4346 0.451757 56.9828 1.00857 56.9828H7.1945V53.2632C4.44823 52.7836 2.35334 50.384 2.35334 47.5022C2.35334 44.2769 4.97773 41.6525 8.20307 41.6525C9.0945 41.6525 9.93971 41.8537 10.6972 42.212V6.55361H9.85356C8.92693 6.55361 8.1726 5.7998 8.1726 4.87265V1.91469C8.1726 0.987538 8.92693 0.233734 9.85356 0.233734H37.8678C38.7949 0.233734 39.5487 0.987538 39.5487 1.91469V4.87265C39.5487 5.7998 38.7949 6.55361 37.8678 6.55361H37.0247V9.37814H58.9984C59.9251 9.37814 60.6794 10.1319 60.6794 11.0591V14.0171C60.6794 14.9442 59.9251 15.698 58.9984 15.698H58.6623V33.9201C58.6623 34.4769 58.2105 34.9287 57.6537 34.9287C57.0963 34.9287 56.6451 34.4769 56.6451 33.9201V15.698H37.0247V20.4052C37.0247 20.962 36.5729 21.4138 36.0161 21.4138C35.4587 21.4138 35.0075 20.962 35.0075 20.4052V6.55361H12.7143V43.7821C13.5501 44.7938 14.0528 46.0902 14.0528 47.5022C14.0528 48.9142 13.5501 50.2107 12.7143 51.2224V56.9681H35.0075V25.1791C35.0075 24.6223 35.4587 24.1706 36.0161 24.1706C36.5729 24.1706 37.0247 24.6223 37.0247 25.1791V56.9681H56.6451V51.4914C55.668 50.4455 55.0682 49.0429 55.0682 47.5022C55.0682 45.9615 55.668 44.559 56.6451 43.5131V38.7613C56.6451 38.2045 57.0969 37.7527 57.6537 37.7527C58.2105 37.7527 58.6623 38.2045 58.6623 38.7613V42.1053C59.3567 41.8138 60.1189 41.6525 60.9179 41.6525C64.1432 41.6525 66.7676 44.2769 66.7676 47.5022C66.7676 50.3835 64.6727 52.7836 61.9265 53.2632V56.9828ZM58.6623 13.6809V11.3953H37.0247V13.6809H58.6623ZM10.1898 2.25088V4.53646H37.5316V2.25088H10.1898ZM9.21165 56.9828H10.6972V52.7925C10.2323 53.0121 9.73379 53.1718 9.21165 53.2632V56.9828ZM9.21165 49.9228V51.1993C10.8369 50.7554 12.0357 49.2662 12.0357 47.5022C12.0357 45.389 10.3163 43.6697 8.20307 43.6697C6.08979 43.6697 4.37049 45.389 4.37049 47.5022C4.37049 49.2662 5.56922 50.7554 7.1945 51.1993V49.9228C7.1945 49.366 7.64625 48.9142 8.20307 48.9142C8.75989 48.9142 9.21165 49.366 9.21165 49.9228ZM58.6623 56.9828H59.9093V53.2632C59.4754 53.1876 59.0578 53.0652 58.6623 52.8992V56.9828ZM59.9093 49.9228C59.9093 49.366 60.3611 48.9142 60.9179 48.9142C61.4747 48.9142 61.9265 49.366 61.9265 49.9228V51.1993C63.5517 50.7554 64.7505 49.2662 64.7505 47.5022C64.7505 45.389 63.0312 43.6697 60.9179 43.6697C58.8046 43.6697 57.0853 45.389 57.0853 47.5022C57.0853 49.2662 58.284 50.7554 59.9093 51.1993V49.9228ZM18.4107 8.80189H29.3111C30.2378 8.80189 30.9921 9.55622 30.9921 10.4828V19.8017C30.9921 20.7288 30.2378 21.4826 29.3111 21.4826H18.4107C17.4835 21.4826 16.7297 20.7288 16.7297 19.8017V10.4828C16.7297 9.55622 17.4835 8.80189 18.4107 8.80189ZM24.8125 10.819H22.9088V16.0221H24.8125V10.819ZM20.8917 10.819H18.7469V16.0221H20.8917V10.819ZM18.7469 19.4655H28.975V18.0393H18.7469V19.4655ZM26.8296 16.0221H28.975V10.819H26.8296V16.0221ZM18.4107 38.6541H29.3111C30.2378 38.6541 30.9921 39.4084 30.9921 40.3351V49.6539C30.9921 50.581 30.2378 51.3348 29.3111 51.3348H28.1056C27.5488 51.3348 27.097 50.8831 27.097 50.3263C27.097 49.7694 27.5488 49.3177 28.1056 49.3177H28.975V47.892H18.7469V49.3177H23.3317C23.8885 49.3177 24.3402 49.7694 24.3402 50.3263C24.3402 50.8831 23.8885 51.3348 23.3317 51.3348H18.4107C17.4835 51.3348 16.7297 50.581 16.7297 49.6539V40.3351C16.7297 39.4084 17.4835 38.6541 18.4107 38.6541ZM18.7469 45.8749H20.8917V40.6713H18.7469V45.8749ZM22.9093 45.8749H24.8125V40.6713H22.9093V45.8749ZM26.8296 45.8749H28.975V40.6713H26.8296V45.8749ZM29.3111 23.7283H18.4107C17.4835 23.7283 16.7297 24.4821 16.7297 25.4092V34.728C16.7297 35.6547 17.4835 36.409 18.4107 36.409H29.3111C30.2378 36.409 30.9921 35.6547 30.9921 34.728V25.4092C30.9921 24.4821 30.2378 23.7283 29.3111 23.7283ZM22.9088 25.7454H24.8125V30.9485H22.9088V25.7454ZM18.7469 25.7454H20.8917V30.9485H18.7469V25.7454ZM28.975 34.3918H18.7469V32.9656H28.975V34.3918ZM28.975 30.9485H26.8296V25.7454H28.975V30.9485ZM40.9785 17.4525H43.937C44.8636 17.4525 45.618 18.2063 45.618 19.1335V23.8344C45.618 24.7615 44.8636 25.5153 43.937 25.5153H40.9785C40.0514 25.5153 39.2976 24.7615 39.2976 23.8344V19.1335C39.2976 18.2063 40.0514 17.4525 40.9785 17.4525ZM41.3147 23.4982H43.6008V19.4697H41.3147V23.4982ZM52.1401 17.4525H49.1816C48.2545 17.4525 47.5007 18.2063 47.5007 19.1335V23.8344C47.5007 24.7615 48.2545 25.5153 49.1816 25.5153H52.1401C53.0667 25.5153 53.8211 24.7615 53.8211 23.8344V19.1335C53.8211 18.2063 53.0667 17.4525 52.1401 17.4525ZM51.8039 23.4982H49.5178V19.4697H51.8039V23.4982ZM40.9785 26.8601H43.937C44.8636 26.8601 45.618 27.6139 45.618 28.541V33.2419C45.618 34.1691 44.8636 34.9229 43.937 34.9229H40.9785C40.0514 34.9229 39.2976 34.1691 39.2976 33.2419V28.541C39.2976 27.6139 40.0514 26.8601 40.9785 26.8601ZM41.3147 32.9058H43.6008V28.8772H41.3147V32.9058ZM52.1401 26.8601H49.1816C48.2545 26.8601 47.5007 27.6139 47.5007 28.541V33.2419C47.5007 34.1691 48.2545 34.9229 49.1816 34.9229H52.1401C53.0667 34.9229 53.8211 34.1691 53.8211 33.2419V28.541C53.8211 27.6139 53.0667 26.8601 52.1401 26.8601ZM51.8039 32.9058H49.5178V28.8772H51.8039V32.9058ZM40.9785 36.2677H43.937C44.8636 36.2677 45.618 37.022 45.618 37.9486V42.6495C45.618 43.5767 44.8636 44.3305 43.937 44.3305H40.9785C40.0514 44.3305 39.2976 43.5767 39.2976 42.6495V37.9486C39.2976 37.022 40.0514 36.2677 40.9785 36.2677ZM41.3147 42.3133H43.6008V38.2848H41.3147V42.3133ZM52.1401 36.2677H49.1816C48.2545 36.2677 47.5007 37.022 47.5007 37.9486V42.6495C47.5007 43.5767 48.2545 44.3305 49.1816 44.3305H52.1401C53.0667 44.3305 53.8211 43.5767 53.8211 42.6495V37.9486C53.8211 37.022 53.0667 36.2677 52.1401 36.2677ZM51.8039 42.3133H49.5178V38.2848H51.8039V42.3133ZM40.9785 45.6753H43.937C44.8636 45.6753 45.618 46.4296 45.618 47.3562V52.0576C45.618 52.9843 44.8636 53.7386 43.937 53.7386H40.9785C40.0514 53.7386 39.2976 52.9843 39.2976 52.0576V47.3562C39.2976 46.4296 40.0514 45.6753 40.9785 45.6753ZM41.3147 51.7214H43.6008V47.6924H41.3147V51.7214ZM52.1401 45.6753H49.1816C48.2545 45.6753 47.5007 46.4296 47.5007 47.3562V52.0576C47.5007 52.9843 48.2545 53.7386 49.1816 53.7386H52.1401C53.0667 53.7386 53.8211 52.9843 53.8211 52.0576V47.3562C53.8211 46.4296 53.0667 45.6753 52.1401 45.6753ZM51.8039 51.7214H49.5178V47.6924H51.8039V51.7214Z" fill="#263238"/>
</svg>
