<svg width="55" height="59" viewBox="0 0 55 59" fill="none" xmlns="http://www.w3.org/2000/svg">
<path fill-rule="evenodd" clip-rule="evenodd" d="M43.5572 3.80318H50.3029C52.8745 3.80318 54.9668 5.89549 54.9668 8.46726V54.106C54.9668 56.6777 52.8745 58.77 50.3029 58.77H13.9923C13.5168 58.77 13.1314 58.3846 13.1314 57.9091C13.1314 57.4337 13.5168 57.0482 13.9923 57.0482H50.3029C51.9252 57.0482 53.245 55.7284 53.245 54.106V53.9184C52.4418 54.5732 51.4175 54.9668 50.3029 54.9668H4.66396C3.54928 54.9668 2.52493 54.5732 1.72178 53.9184V54.106C1.72178 55.7283 3.04158 57.0482 4.66396 57.0482H10.5488C11.0243 57.0482 11.4097 57.4337 11.4097 57.9091C11.4097 58.3846 11.0243 58.77 10.5488 58.77H4.66396C2.09219 58.77 0 56.6778 0 54.106V8.46714C0 5.89549 2.09231 3.80318 4.66396 3.80318H11.4097V2.76254C11.4097 1.23922 12.6488 0 14.1721 0C15.6954 0 16.9346 1.23922 16.9346 2.76254V3.80318H38.0322V2.76254C38.0322 1.23922 39.2715 0 40.7947 0C42.3179 0 43.5572 1.23922 43.5572 2.76254V3.80318ZM40.7946 1.72178C40.2208 1.72178 39.754 2.18861 39.754 2.76254V8.46737C39.754 9.0413 40.2208 9.50813 40.7946 9.50813C41.3684 9.50813 41.8353 9.04119 41.8353 8.46737V2.76254C41.8353 2.18861 41.3684 1.72178 40.7946 1.72178ZM14.1721 1.72178C13.5983 1.72178 13.1314 2.18861 13.1314 2.76254V8.46737C13.1314 9.0413 13.5983 9.50813 14.1721 9.50813C14.7459 9.50813 15.2127 9.04119 15.2127 8.46737V2.76254C15.2127 2.18861 14.7459 1.72178 14.1721 1.72178ZM11.4097 5.52497H4.66396C3.04158 5.52497 1.72178 6.84488 1.72178 8.46726V13.3113H39.0728C39.5484 13.3113 39.9337 13.6968 39.9337 14.1722C39.9337 14.6476 39.5484 15.0331 39.0728 15.0331H1.72178V17.1145H53.2452V15.033H42.5166C42.0411 15.033 41.6557 14.6475 41.6557 14.1721C41.6557 13.6967 42.0411 13.3112 42.5166 13.3112H53.2452V8.46714C53.2452 6.84488 51.9254 5.52497 50.303 5.52497H43.5573V7.60637H44.5979C45.0735 7.60637 45.4588 7.99182 45.4588 8.46726C45.4588 8.9427 45.0735 9.32815 44.5979 9.32815H43.419C43.0564 10.431 42.0173 11.2298 40.7946 11.2298C39.572 11.2298 38.533 10.431 38.1703 9.32815H36.9914C36.5159 9.32815 36.1305 8.9427 36.1305 8.46726C36.1305 7.99182 36.5159 7.60637 36.9914 7.60637H38.0322V5.52497H16.9346V7.60637H17.9753C18.4508 7.60637 18.8362 7.99182 18.8362 8.46726C18.8362 8.9427 18.4508 9.32815 17.9753 9.32815H16.7964C16.4338 10.431 15.3948 11.2298 14.1721 11.2298C12.9493 11.2298 11.9104 10.431 11.5476 9.32815H10.3689C9.89335 9.32815 9.50802 8.9427 9.50802 8.46726C9.50802 7.99182 9.89335 7.60637 10.3689 7.60637H11.4097V5.52497ZM4.66396 53.245H50.3029C51.9252 53.245 53.245 51.9252 53.2449 50.3029V18.8363H1.72178V50.3029C1.72178 51.9251 3.04158 53.245 4.66396 53.245ZM37.9002 23.0296C36.8643 22.6003 35.6829 22.8355 34.8897 23.6285L31.0864 27.4316C30.0094 28.5087 30.0094 30.2613 31.0865 31.3385C31.8945 32.1463 33.0827 32.3482 34.0806 31.944V46.4996C34.0806 48.0228 35.3198 49.262 36.843 49.262C38.3662 49.262 39.6054 48.0228 39.6054 46.4996V25.5819C39.6054 24.4605 38.936 23.4587 37.9002 23.0296ZM37.8836 46.4996C37.8836 47.0734 37.4168 47.5402 36.843 47.5402C36.2692 47.5402 35.8023 47.0734 35.8023 46.4996V30.1727C35.8023 29.8245 35.5926 29.5106 35.2709 29.3774C35.1644 29.3333 35.0526 29.3118 34.9417 29.3118C34.7176 29.3118 34.4975 29.3993 34.3326 29.564L33.7757 30.121C33.3698 30.5268 32.7096 30.5267 32.3039 30.121C31.8981 29.7152 31.8981 29.0549 32.3039 28.6492L36.1072 24.846C36.4059 24.5472 36.8509 24.4585 37.2411 24.6203H37.2413C37.6316 24.7821 37.8837 25.1595 37.8837 25.5819L37.8836 46.4996ZM21.3034 22.8193C16.8966 22.8193 13.3115 26.4044 13.3115 30.8113C13.3115 32.3346 14.5507 33.5738 16.0739 33.5738C17.5972 33.5738 18.8364 32.3346 18.8364 30.8113C18.8364 29.451 19.9431 28.3443 21.3033 28.3443C22.6635 28.3443 23.7703 29.451 23.7703 30.8113C23.7703 32.1716 22.6635 33.2782 21.3033 33.2782C19.78 33.2782 18.5409 34.5175 18.5409 36.0408C18.5409 37.5641 19.7801 38.8032 21.3033 38.8032C22.6636 38.8032 23.7703 39.9099 23.7703 41.2702C23.7703 42.6305 22.6635 43.7371 21.3033 43.7371C19.9431 43.7371 18.8364 42.6305 18.8364 41.2702C18.8364 39.747 17.5971 38.5078 16.0739 38.5078C14.5507 38.5078 13.3115 39.747 13.3115 41.2702C13.3115 45.6769 16.8966 49.2621 21.3034 49.2621C25.7102 49.2621 29.2953 45.6769 29.2953 41.2702C29.2953 39.349 28.5915 37.4867 27.3403 36.0408C28.5915 34.5948 29.2953 32.7324 29.2953 30.8113C29.2953 26.4044 25.7102 22.8193 21.3034 22.8193ZM25.5598 36.6722C26.8395 37.8578 27.5736 39.5337 27.5736 41.2701C27.5736 44.7274 24.7607 47.5402 21.3034 47.5402C17.8461 47.5402 15.0333 44.7274 15.0333 41.2701C15.0333 40.6962 15.5001 40.2294 16.0739 40.2294C16.6478 40.2294 17.1147 40.6962 17.1147 41.2701C17.1147 43.5798 18.9937 45.4588 21.3033 45.4588C23.613 45.4588 25.492 43.5798 25.492 41.2701C25.492 38.9603 23.613 37.0813 21.3033 37.0813C20.7295 37.0813 20.2626 36.6145 20.2626 36.0407C20.2626 35.4667 20.7295 34.9999 21.3033 34.9999C23.613 34.9999 25.492 33.1209 25.492 30.8112C25.492 28.5014 23.613 26.6224 21.3033 26.6224C18.9937 26.6224 17.1147 28.5014 17.1147 30.8112C17.1147 31.385 16.6478 31.8519 16.0739 31.8519C15.5001 31.8519 15.0333 31.3851 15.0333 30.8112C15.0333 27.3538 17.8461 24.541 21.3034 24.541C24.7607 24.541 27.5736 27.3538 27.5736 30.8112C27.5736 32.5475 26.8395 34.2234 25.5598 35.4091C25.3839 35.572 25.2839 35.801 25.2839 36.0407C25.2839 36.2803 25.3839 36.5093 25.5598 36.6722Z" fill="#263238"/>
</svg>
