<svg width="69" height="51" viewBox="0 0 69 51" fill="none" xmlns="http://www.w3.org/2000/svg">
<path fill-rule="evenodd" clip-rule="evenodd" d="M63.1026 48.7318H67.8434C68.4002 48.7318 68.852 49.1835 68.852 49.7403C68.852 50.2977 68.4002 50.7489 67.8434 50.7489H1.00857C0.451757 50.7489 0 50.2977 0 49.7403C0 49.1835 0.451757 48.7318 1.00857 48.7318H2.05602V46.8191C2.05602 45.8925 2.81035 45.1382 3.73698 45.1382H4.1651C4.12412 44.8724 4.10154 44.6008 4.10154 44.324C4.10154 42.8127 4.73505 41.4485 5.7494 40.4783V18.9631H1.68096C1.13412 18.9631 0.666079 18.7057 0.428119 18.2744C0.190684 17.8431 0.223252 17.3099 0.515318 16.8472L8.76514 3.79452C9.14546 3.19306 9.93761 2.75653 10.6494 2.75653H31.8883L33.2204 1.14964C33.5251 0.781934 33.9643 0.571289 34.426 0.571289C34.8872 0.571289 35.3269 0.781934 35.6316 1.14964L36.9637 2.75653H58.2026C58.9139 2.75653 59.7065 3.19306 60.0863 3.79452L68.3367 16.8472C68.6288 17.3094 68.6613 17.8431 68.4239 18.2744C68.1859 18.7057 67.7179 18.9631 67.1711 18.9631H63.1026V48.7318ZM45.6984 13.2925H63.7035L62.6834 11.6787H44.361L45.6984 13.2925ZM61.4085 9.66159L60.3884 8.04787H41.3505L42.6884 9.66159H61.4085ZM58.387 4.88137C58.3497 4.83987 58.2473 4.78314 58.1921 4.77368H38.6363L39.6779 6.03072H59.1135L58.387 4.88137ZM15.1959 8.04787H8.46362L7.44349 9.66159H26.1636L27.5015 8.04787H19.9025C19.3457 8.04787 18.894 7.59611 18.894 7.0393C18.894 6.48195 19.3457 6.03072 19.9025 6.03072H29.1735L30.2157 4.77368H10.6594C10.6047 4.78314 10.5023 4.83987 10.465 4.88084L9.738 6.03072H15.1959C15.7527 6.03072 16.2044 6.48195 16.2044 7.0393C16.2044 7.59611 15.7527 8.04787 15.1959 8.04787ZM24.491 11.6787H6.16859L5.14846 13.2925H23.1531L24.491 11.6787ZM3.87356 15.3096L2.83924 16.9459H20.1242L21.4811 15.3096H3.87356ZM19.726 38.2625C20.6511 38.2625 21.5289 38.511 22.2926 38.9465V21.1315H19.4723C18.8976 21.1315 18.4259 20.8578 18.2105 20.3998C17.9957 19.9422 18.0855 19.4054 18.4517 18.9631H7.76655V39.2664C8.28869 39.0946 8.84604 39.0001 9.42492 39.0001C10.9751 39.0001 12.4291 39.6919 13.4245 40.8218C13.7707 40.7241 14.1353 40.671 14.5119 40.671C14.774 40.671 15.032 40.6957 15.2841 40.7451C16.2244 39.2301 17.909 38.2625 19.726 38.2625ZM6.22217 45.1382H10.5212C10.5044 44.9911 10.495 44.8414 10.495 44.6896C10.495 43.597 10.9336 42.6052 11.6438 41.8798C11.0455 41.3392 10.2575 41.0172 9.42492 41.0172C7.60213 41.0172 6.11868 42.5007 6.11868 44.324C6.11868 44.605 6.15598 44.8776 6.22217 45.1382ZM4.07317 48.7318H22.2926V47.1553H4.07317V48.7318ZM12.5646 45.1382H22.2932V41.5772C21.7033 40.7882 20.763 40.2797 19.7266 40.2797C18.4133 40.2797 17.212 41.1039 16.7387 42.331C16.6373 42.5926 16.4324 42.8006 16.1719 42.9046C15.9113 43.0081 15.6198 42.9997 15.366 42.8794C15.0976 42.7528 14.8103 42.6882 14.5119 42.6882C13.4093 42.6882 12.5121 43.5859 12.5121 44.6896C12.5121 44.844 12.531 44.9943 12.5646 45.1382ZM34.426 2.85581L20.9468 19.1143H22.7255L33.6496 5.93879C33.8408 5.70766 34.1255 5.57371 34.426 5.57371C34.7259 5.57371 35.0107 5.70766 35.2024 5.93827L46.1265 19.1143H47.9052L34.426 2.85581ZM30.1553 33.0784V48.7318H38.6967V33.0784H30.1553ZM46.5594 48.7318H61.0855V18.9631H59.1697C58.6129 18.9631 58.1611 18.5118 58.1611 17.9545C58.1611 17.3977 58.6129 16.9459 59.1697 16.9459H66.0128L64.9784 15.3096H47.3709L48.7278 16.9459H54.3285C54.8854 16.9459 55.3371 17.3977 55.3371 17.9545C55.3371 18.5118 54.8854 18.9631 54.3285 18.9631H50.4003C50.766 19.4054 50.8563 19.9422 50.6409 20.3998C50.4256 20.8578 49.9538 21.1315 49.3792 21.1315H46.5594V31.7788C46.5594 32.3361 46.1076 32.7874 45.5508 32.7874C44.994 32.7874 44.5422 32.3361 44.5422 31.7788V20.364L34.426 8.16239L24.3098 20.364V48.7318H28.1382V32.7422C28.1382 31.8156 28.892 31.0612 29.8191 31.0612H39.0329C39.96 31.0612 40.7138 31.8156 40.7138 32.7422V48.7318H44.5422V36.5527C44.5422 35.9959 44.994 35.5441 45.5508 35.5441C46.1076 35.5441 46.5594 35.9959 46.5594 36.5527V48.7318ZM34.8657 15.525H33.9863C31.8042 15.525 30.0293 17.3005 30.0293 19.4826V23.3162C30.0293 24.1162 30.6801 24.7671 31.4801 24.7671H37.3719C38.1719 24.7671 38.8228 24.1162 38.8228 23.3162V19.4826C38.8228 17.3005 37.0478 15.525 34.8657 15.525ZM32.0459 22.7499V19.4826C32.0459 18.4126 32.9163 17.5421 33.9863 17.5421H34.8657C35.9352 17.5421 36.8056 18.4126 36.8056 19.4826V22.7499H32.0459ZM17.0911 23.6424H13.1661C12.2395 23.6424 11.4851 24.3962 11.4851 25.3234V35.448C11.4851 36.3752 12.2395 37.129 13.1661 37.129H17.0911C18.0177 37.129 18.7721 36.3752 18.7721 35.448V25.3234C18.7721 24.3962 18.0177 23.6424 17.0911 23.6424ZM16.7549 35.1118H13.5023V25.6596H16.7549V35.1118ZM31.7365 38.6586C31.1797 38.6586 30.7279 39.1099 30.7279 39.6672V41.7064C30.7279 42.2638 31.1797 42.715 31.7365 42.715C32.2933 42.715 32.7451 42.2638 32.7451 41.7064V39.6672C32.7451 39.1099 32.2933 38.6586 31.7365 38.6586ZM51.7608 23.6424H55.6858C56.6125 23.6424 57.3668 24.3962 57.3668 25.3234V35.448C57.3668 36.3752 56.6125 37.129 55.6858 37.129H51.7608C50.8342 37.129 50.0798 36.3752 50.0798 35.448V25.3234C50.0798 24.3962 50.8342 23.6424 51.7608 23.6424ZM52.097 35.1118H55.3496V25.6596H52.097V35.1118Z" fill="#263238"/>
</svg>
