<svg width="15" height="9" viewBox="0 0 15 9" fill="none" xmlns="http://www.w3.org/2000/svg">
<path d="M3.04894 0.503748L0.599569 2.95312C0.201835 3.36991 -0.0200748 3.92389 -0.0200748 4.5C-0.0200748 5.07611 0.201835 5.63009 0.599569 6.04688L3.04894 8.49625C3.22473 8.67212 3.46319 8.77096 3.71185 8.77102C3.96051 8.77108 4.19901 8.67235 4.37488 8.49656C4.55075 8.32078 4.64959 8.08232 4.64965 7.83366C4.64971 7.585 4.55098 7.3465 4.37519 7.17063L2.63769 5.4325L14.0439 5.41813C14.2926 5.41813 14.531 5.31935 14.7069 5.14354C14.8827 4.96772 14.9814 4.72927 14.9814 4.48062C14.9814 4.23198 14.8827 3.99353 14.7069 3.81771C14.531 3.6419 14.2926 3.54312 14.0439 3.54312L2.64957 3.5575L4.37519 1.82937C4.54597 1.65256 4.64046 1.41574 4.63833 1.16993C4.63619 0.924125 4.53759 0.688988 4.36377 0.515167C4.18995 0.341347 3.95482 0.242751 3.70901 0.240615C3.4632 0.238479 3.22638 0.332975 3.04957 0.503748H3.04894Z" fill="#263238"/>
</svg>
