<svg width="15" height="9" viewBox="0 0 15 9" fill="none" xmlns="http://www.w3.org/2000/svg">
<path d="M11.9325 0.263155L14.3819 2.71253C14.7796 3.12932 15.0015 3.68329 15.0015 4.25941C15.0015 4.83552 14.7796 5.38949 14.3819 5.80628L11.9325 8.25566C11.7567 8.43153 11.5183 8.53037 11.2696 8.53043C11.0209 8.53048 10.7824 8.43176 10.6066 8.25597C10.4307 8.08018 10.3319 7.84173 10.3318 7.59307C10.3317 7.34441 10.4305 7.1059 10.6063 6.93003L12.3438 5.19191L0.9375 5.17753C0.68886 5.17753 0.450403 5.07876 0.274587 4.90294C0.098772 4.72713 0 4.48867 0 4.24003C0 3.99139 0.098772 3.75293 0.274587 3.57712C0.450403 3.4013 0.68886 3.30253 0.9375 3.30253L12.3319 3.31691L10.6063 1.58878C10.4355 1.41197 10.341 1.17515 10.3431 0.929341C10.3453 0.683532 10.4439 0.448395 10.6177 0.274574C10.7915 0.100754 11.0266 0.00215816 11.2724 2.19345e-05C11.5182 -0.0021143 11.7551 0.0923824 11.9319 0.263155H11.9325Z" fill="#E4405F"/>
</svg>
