<svg width="36" height="59" viewBox="0 0 36 59" fill="none" xmlns="http://www.w3.org/2000/svg">
<path fill-rule="evenodd" clip-rule="evenodd" d="M29.1132 22.4178C27.2494 24.8702 24.6037 26.6964 21.6633 27.5599C20.857 27.7966 20.2939 28.5472 20.2939 29.385C20.2939 30.2228 20.8572 30.9734 21.6634 31.2102C24.6039 32.0738 27.2495 33.9 29.1133 36.3523C31.0396 38.8873 32.0579 41.9143 32.0579 45.1062V47.7277C32.0579 48.2032 31.6726 48.5886 31.197 48.5886C30.7214 48.5886 30.3361 48.2032 30.3361 47.7277V45.1062C30.3361 42.2937 29.4392 39.6268 27.7423 37.3941C26.0995 35.2324 23.7682 33.623 21.1781 32.8623C19.6436 32.4117 18.572 30.9818 18.572 29.385C18.572 27.7883 19.6436 26.3585 21.1781 25.9078C23.7683 25.1471 26.0995 23.5377 27.7423 21.376C29.4393 19.1432 30.3361 16.4764 30.3361 13.6639V6.52864H4.81524V13.6639C4.81524 16.476 5.71205 19.1427 7.40846 21.3753C9.05092 23.5368 11.3816 25.1463 13.9714 25.9074C15.5055 26.3581 16.577 27.7879 16.577 29.3843C16.577 30.9822 15.5055 32.412 13.9714 32.8628C11.3816 33.6237 9.05092 35.2333 7.40846 37.3948C5.71205 39.6275 4.81524 42.2941 4.81524 45.1062V52.2415H11.1266C11.512 49.3407 13.814 47.0385 16.7148 46.6532V43.4306C16.7148 42.955 17.1001 42.5697 17.5757 42.5697C18.0512 42.5697 18.4366 42.955 18.4366 43.4306V46.6532C21.3373 47.0385 23.6393 49.3407 24.0248 52.2415H30.3361V51.26C30.3361 50.7844 30.7214 50.3991 31.197 50.3991C31.6726 50.3991 32.0579 50.7844 32.0579 51.26V52.4515C33.8499 53.0241 35.1514 54.7047 35.1514 56.6841V57.9091C35.1514 58.3847 34.766 58.77 34.2905 58.77H0.860889C0.385334 58.77 0 58.3847 0 57.9091V56.6841C0 54.7047 1.30143 53.0241 3.09346 52.4515V45.1062C3.09346 41.9146 4.11149 38.8878 6.03747 36.3531C7.90078 33.901 10.5461 32.0748 13.486 31.2109C14.2922 30.974 14.8553 30.2235 14.8553 29.3858C14.8553 28.5467 14.2921 27.7961 13.486 27.5593C10.546 26.6954 7.90066 24.8691 6.03747 22.417C4.11149 19.8823 3.09346 16.8555 3.09346 13.6639V6.31858C1.30143 5.74603 0 4.06546 0 2.08599V0.860889C0 0.385334 0.385334 0 0.860889 0H34.2903C34.7659 0 35.1512 0.385334 35.1512 0.860889V2.08599C35.1512 4.06546 33.8498 5.74603 32.0578 6.31858V13.6639C32.0578 16.8559 31.0395 19.883 29.1132 22.4178ZM22.2796 52.2166C21.8631 49.9992 19.9122 48.3163 17.5757 48.3163C15.2391 48.3163 13.2882 49.9992 12.8718 52.2166H22.2796ZM33.4296 56.6841C33.4296 55.1839 32.2089 53.9633 30.7087 53.9633H4.44264C2.9424 53.9633 1.72178 55.1839 1.72178 56.6841V57.0482H33.4296V56.6841ZM1.72178 2.08599C1.72178 3.58623 2.9424 4.80686 4.44264 4.80686H30.7087C32.2089 4.80686 33.4296 3.58623 33.4296 2.08599V1.72178H1.72178V2.08599ZM28.6415 13.8481C28.6065 19.6293 24.1154 24.3734 18.4367 24.8124V26.3033C18.4367 26.7788 18.0514 27.1641 17.5758 27.1641C17.1003 27.1641 16.715 26.7788 16.715 26.3033V24.812C13.6315 24.5758 10.8101 23.0773 8.87455 20.6175C8.5807 20.2439 8.64521 19.7026 9.01884 19.4086C9.39235 19.1148 9.93356 19.1791 10.2278 19.5529C12.0135 21.8223 14.6917 23.1239 17.5758 23.1239C22.6961 23.1239 26.8677 18.9843 26.9195 13.8762C26.7031 12.4106 24.1068 11.5736 23.1737 11.4333C21.5744 11.1926 20.2511 12.0149 18.5761 13.0559C16.7477 14.1922 14.6753 15.4799 11.7524 15.5596C10.6111 15.5917 9.46248 15.4323 8.32243 15.0879C8.38637 15.545 8.48394 15.996 8.61479 16.4376C8.74967 16.8934 8.48968 17.3724 8.03375 17.5075C7.57771 17.6421 7.09894 17.3823 6.96384 16.9265C6.66849 15.929 6.51583 14.8918 6.51009 13.8424L6.50992 13.8359L6.50986 13.8252V13.7802C6.50986 13.3046 6.8952 12.9193 7.37075 12.9193C7.58402 12.9193 7.77916 12.9969 7.92964 13.1253C9.18677 13.6327 10.4556 13.8736 11.7056 13.8385C14.1624 13.7715 15.9442 12.6642 17.6673 11.5934C19.4858 10.4634 21.2032 9.39609 23.4295 9.73057C24.7453 9.92834 28.1777 10.9969 28.6116 13.5537C28.6313 13.6258 28.6417 13.7018 28.6417 13.7802V13.8118C28.6418 13.8239 28.6418 13.8361 28.6415 13.8481ZM18.4367 32.8755C18.4367 32.4 18.0513 32.0146 17.5758 32.0146C17.1002 32.0146 16.7149 32.4 16.7149 32.8755V34.3586C16.7149 34.8342 17.1002 35.2195 17.5758 35.2195C18.0513 35.2195 18.4367 34.8342 18.4367 34.3586V32.8755ZM16.7149 37.4893C16.7149 37.0137 17.1002 36.6284 17.5758 36.6284C18.0513 36.6284 18.4367 37.0137 18.4367 37.4893V37.8115C18.4367 38.287 18.0513 38.6724 17.5758 38.6724C17.1002 38.6724 16.7149 38.287 16.7149 37.8115V37.4893Z" fill="#263238"/>
</svg>
