<svg width="42" height="59" viewBox="0 0 42 59" fill="none" xmlns="http://www.w3.org/2000/svg">
<path fill-rule="evenodd" clip-rule="evenodd" d="M20.4907 57.048C23.5823 57.0152 26.479 56.3083 29.0995 54.9472C29.5212 54.7281 30.0411 54.8924 30.2606 55.3146C30.4799 55.7364 30.3155 56.2562 29.8935 56.4754C27.0311 57.9623 23.8735 58.7342 20.5083 58.77C10.0619 58.7685 1.45163 50.987 0.217927 39.3966C-0.320919 35.091 0.144 30.5462 1.56263 26.2558C2.98964 21.9405 5.31033 18.1023 8.27387 15.1561C8.57544 14.8547 9.02761 14.7629 9.42469 14.9242C9.82153 15.0855 10.0815 15.4668 10.0872 15.8955C10.0989 17.0107 10.2685 18.6882 11.0098 20.3597C11.1463 20.6679 11.2969 20.9631 11.4571 21.2371C11.5268 21.3576 11.5988 21.4755 11.6729 21.5908C11.8008 21.1469 11.9382 20.716 12.0873 20.2915C12.644 18.6992 13.3535 17.2382 14.1959 15.95C15.2227 14.3807 16.1212 13.5483 16.9902 12.7434L16.9907 12.743L16.991 12.7427L16.991 12.7427C17.5305 12.2431 18.0402 11.7711 18.5607 11.1319C20.3883 8.88829 21.5658 5.49209 22.0609 1.0376C22.1124 0.584042 22.4116 0.211763 22.8425 0.0641368C23.2721 -0.0829152 23.7356 0.0270581 24.0519 0.351353C24.8975 1.21392 25.8434 2.32249 26.5042 3.18116C29.3057 6.81946 31.4376 11.1675 32.6692 15.7553C32.7925 16.2145 32.5202 16.6869 32.0609 16.81C31.6021 16.9332 31.1294 16.661 31.0062 16.2017C29.8328 11.8312 27.8041 7.69213 25.1397 4.23187C24.6477 3.59522 24.032 2.86317 23.6219 2.41042C23.0161 6.62855 21.7647 9.92488 19.8957 12.2193C19.2998 12.9511 18.722 13.4863 18.1634 14.0037L18.1606 14.0064L18.1598 14.0071L18.1598 14.0071C17.3308 14.7751 16.5476 15.5005 15.6369 16.8926C14.8709 18.0639 14.2233 19.3991 13.7123 20.8609C13.4597 21.5803 13.2428 22.3198 13.0488 23.1229C12.9436 23.552 12.6138 23.8801 12.1872 23.9821C11.7621 24.084 11.3212 23.9407 11.0364 23.609C10.643 23.155 10.2828 22.647 9.96824 22.1024C9.77791 21.7773 9.59791 21.4242 9.43536 21.0576C8.87551 19.7948 8.59667 18.5373 8.46661 17.4618C3.50553 23.0865 0.956975 31.4396 1.92653 39.1845C2.98012 49.0115 9.95194 56.9761 20.4907 57.048ZM38.7595 21.435C38.7637 21.4435 38.7677 21.4519 38.7715 21.4605C41.0841 26.6019 41.698 32.9501 40.6484 40.8683C39.8948 46.1842 37.3198 50.8992 33.3961 54.1524C33.2355 54.2858 33.0407 54.3506 32.847 54.3506C32.5996 54.3506 32.3541 54.2445 32.1839 54.0392C31.8803 53.6731 31.9311 53.1303 32.297 52.8268C35.8902 49.8477 38.2504 45.5176 38.9425 40.6344C39.8424 33.8437 39.4799 28.2876 37.8311 23.7246C36.9948 25.4033 35.5095 27.2983 34.1452 28.0263C33.7958 28.2354 33.3591 28.2545 32.9921 28.0733C32.6079 27.8836 32.3516 27.4999 32.3233 27.0721C32.2694 26.2516 32.173 24.7131 32.1341 23.6241C32.0918 22.4012 31.9747 21.1527 31.7859 19.9122C31.7143 19.442 32.0374 19.0031 32.5075 18.9314C32.9766 18.8609 33.4166 19.1828 33.4883 19.653C33.687 20.9593 33.8104 22.2749 33.8549 23.5635C33.8812 24.3008 33.9349 25.255 33.9831 26.0417C35.1578 25.0151 36.5209 22.9568 36.7616 21.7003C36.8524 21.2467 37.216 20.907 37.6681 20.8484C38.1194 20.7901 38.559 21.0255 38.7595 21.435ZM10.6058 12.2049C10.7343 12.3989 10.9359 12.5327 11.1647 12.5757C11.2175 12.5856 11.2707 12.5905 11.3238 12.5905C11.5001 12.5905 11.6738 12.5362 11.8199 12.4331C11.9468 12.3437 14.9341 10.2039 15.5579 6.89809C16.1817 3.59155 14.1777 0.515856 14.092 0.386482C13.9636 0.192479 13.762 0.0587435 13.5332 0.0156955C13.305 -0.0267785 13.0681 0.0241903 12.878 0.15827C12.8097 0.206369 11.1941 1.35845 10.0802 3.2529C9.83914 3.66284 9.97608 4.19043 10.3859 4.4315C10.7959 4.67268 11.3234 4.53562 11.5645 4.1258C12.0457 3.30732 12.6517 2.64656 13.1216 2.20139C13.5856 3.18759 14.1857 4.88287 13.8657 6.57885C13.5453 8.27724 12.3656 9.641 11.574 10.3913C11.2508 9.70643 10.8621 8.67615 10.7645 7.53027C10.7242 7.05651 10.3077 6.70524 9.83374 6.74542C9.35998 6.78571 9.00859 7.20241 9.04889 7.67617C9.25885 10.1455 10.5509 12.1219 10.6058 12.2049ZM37.9525 18.0055C37.7465 18.0055 37.5402 17.9318 37.3761 17.7841C37.2731 17.6912 34.8503 15.4751 34.8077 12.5984C34.7648 9.72111 37.1213 7.4398 37.2216 7.34406C37.5473 7.0332 38.0577 7.02573 38.3923 7.32741C38.4953 7.4204 40.918 9.63639 40.9608 12.5131C41.0038 15.3904 38.6473 17.6718 38.5469 17.7675C38.3808 17.9259 38.1667 18.0055 37.9525 18.0055ZM39.239 12.5386C39.2189 11.1955 38.4149 9.96953 37.8326 9.25539C37.2725 9.98181 36.5092 11.223 36.5292 12.5727C36.5492 13.9158 37.3533 15.1418 37.9357 15.856C38.4958 15.1295 39.2591 13.8886 39.239 12.5386ZM32.8497 30.8823C28.7689 24.0678 19.9047 21.8438 13.0897 25.9245C10.8139 27.2875 8.96316 29.247 7.73773 31.5915C7.51744 32.0129 7.68044 32.533 8.10186 32.7533C8.52338 32.9736 9.0434 32.8107 9.26369 32.3892C10.3421 30.3261 11.971 28.6015 13.9744 27.4018C19.9747 23.8086 27.7793 25.7668 31.3724 31.7669C34.9656 37.767 33.0075 45.5716 27.0074 49.1648C21.0075 52.758 13.2026 50.7998 9.60934 44.7998C8.03987 42.1791 7.47152 39.077 8.0091 36.065C8.09267 35.597 7.78089 35.1497 7.31276 35.0662C6.84543 34.9835 6.3975 35.2944 6.31393 35.7625C5.70357 39.1835 6.34929 42.7073 8.13216 45.6846C10.8288 50.1874 15.6129 52.6859 20.5149 52.6855C23.0317 52.6853 25.5804 52.0265 27.8922 50.6421C31.1884 48.6682 33.5199 45.5234 34.4573 41.7873C35.3945 38.0513 34.8238 34.1785 32.8497 30.8823ZM21.3518 27.7237V29.4456C21.3518 29.9212 20.9664 30.3066 20.4908 30.3066C20.0152 30.3066 19.6299 29.9212 19.6299 29.4456V27.7237C19.6299 27.2481 20.0152 26.8627 20.4908 26.8627C20.9664 26.8627 21.3518 27.2481 21.3518 27.7237ZM11.6529 39.1442C12.1285 39.1442 12.5139 38.7589 12.5139 38.2833C12.5139 37.8077 12.1285 37.4223 11.6529 37.4223H9.93101C9.45542 37.4223 9.07005 37.8077 9.07005 38.2833C9.07005 38.7589 9.45542 39.1442 9.93101 39.1442H11.6529ZM19.6299 48.843V47.1211C19.6299 46.6455 20.0152 46.2601 20.4908 46.2601C20.9664 46.2601 21.3518 46.6455 21.3518 47.1211V48.843C21.3518 49.3186 20.9664 49.704 20.4908 49.704C20.0152 49.704 19.6299 49.3186 19.6299 48.843ZM31.0503 39.1442C31.5259 39.1442 31.9113 38.7589 31.9113 38.2833C31.9113 37.8077 31.5259 37.4223 31.0503 37.4223H29.3284C28.8528 37.4223 28.4675 37.8077 28.4675 38.2833C28.4675 38.7589 28.8528 39.1442 29.3284 39.1442H31.0503ZM16.1861 33.9781C16.5223 33.642 17.0674 33.642 17.4037 33.9781L19.3784 35.9528C19.7156 35.7911 20.093 35.7004 20.4913 35.7004C20.8895 35.7004 21.2669 35.7912 21.6041 35.9528L26.5252 31.0317C26.8614 30.6956 27.4065 30.6956 27.7428 31.0317C28.0791 31.3679 28.0791 31.913 27.7428 32.2493L22.8217 37.1705C22.9834 37.5076 23.0741 37.8851 23.0741 38.2833C23.0741 39.7074 21.9154 40.8662 20.4913 40.8662C19.0671 40.8662 17.9084 39.7074 17.9084 38.2833C17.9084 37.8851 17.9992 37.5076 18.1608 37.1705L16.1861 35.1958C15.8499 34.8595 15.8499 34.3145 16.1861 33.9781ZM20.4911 39.1442C20.9659 39.1442 21.3521 38.7581 21.3521 38.2833C21.3521 37.8086 20.9659 37.4223 20.4911 37.4223C20.0163 37.4223 19.6302 37.8085 19.6302 38.2833C19.6302 38.7581 20.0163 39.1442 20.4911 39.1442Z" fill="#263238"/>
</svg>
